<svg width="941" height="244" viewBox="0 0 941 244" fill="none" xmlns="http://www.w3.org/2000/svg">
<g clip-path="url(#clip0_1_11)">
<path d="M17.4 194V54H130.4V79.8H49.6V108.6H88.4C105.333 108.6 118.2 112.133 127 119.2C135.933 126.267 140.4 136.533 140.4 150C140.4 163.867 135.467 174.667 125.6 182.4C115.733 190.133 101.8 194 83.8 194H17.4ZM49.6 170H82C90.2667 170 96.6 168.4 101 165.2C105.4 161.867 107.6 157.067 107.6 150.8C107.6 138.533 99.0667 132.4 82 132.4H49.6V170ZM191.456 135.6V110.8H260.656V135.6H191.456ZM209.856 51.6C220.39 51.6 230.056 53.4 238.856 57C247.656 60.4667 255.323 65.4667 261.856 72C268.39 78.5333 273.456 86.2 277.056 95C280.656 103.8 282.456 113.467 282.456 124C282.456 134.533 280.656 144.2 277.056 153C273.456 161.8 268.39 169.467 261.856 176C255.323 182.533 247.656 187.6 238.856 191.2C230.056 194.667 220.39 196.4 209.856 196.4C197.456 196.4 186.256 194.267 176.256 190C166.39 185.733 158.123 179.533 151.456 171.4L172.056 152.2C176.99 157.8 182.456 162 188.456 164.8C194.456 167.467 201.056 168.8 208.256 168.8C214.256 168.8 219.79 167.733 224.856 165.6C230.056 163.333 234.456 160.267 238.056 156.4C241.79 152.4 244.59 147.667 246.456 142.2C248.456 136.733 249.456 130.667 249.456 124C249.456 117.333 248.456 111.267 246.456 105.8C244.59 100.333 241.79 95.6667 238.056 91.8C234.456 87.8 230.056 84.7333 224.856 82.6C219.79 80.3333 214.256 79.2 208.256 79.2C201.056 79.2 194.456 80.6 188.456 83.4C182.456 86.0667 176.99 90.2 172.056 95.8L151.456 76.6C158.123 68.4667 166.39 62.2667 176.256 58C186.256 53.7333 197.456 51.6 209.856 51.6ZM312.723 195.6C307.39 195.6 302.79 193.8 298.923 190.2C295.19 186.467 293.323 181.733 293.323 176C293.323 170.267 295.19 165.667 298.923 162.2C302.79 158.6 307.39 156.8 312.723 156.8C318.19 156.8 322.79 158.6 326.523 162.2C330.257 165.667 332.123 170.267 332.123 176C332.123 181.733 330.257 186.467 326.523 190.2C322.79 193.8 318.19 195.6 312.723 195.6ZM384.467 194V80.4H339.667V54H461.667V80.4H416.867V194H384.467ZM508.9 110.4H576.3V135.6H508.9V110.4ZM511.3 168H587.5V194H479.1V54H584.9V80H511.3V168ZM594.88 194L657.28 54H689.28L751.88 194H717.88L666.68 70.4H679.48L628.08 194H594.88ZM626.08 164L634.68 139.4H706.68L715.48 164H626.08ZM766.405 194V54H793.205L852.805 152.8H838.605L897.205 54H923.805L924.205 194H893.805L893.605 100.6H899.205L852.405 179.2H837.805L790.005 100.6H796.805V194H766.405Z" fill="black"/>
</g>
<defs>
<clipPath id="clip0_1_11">
<rect width="941" height="244" fill="white"/>
</clipPath>
</defs>
</svg>
